PathFileType	4	(X/Y/Z)	/Users/niels/Desktop/University/Third Semester/Perception and Action/Exam/Gymnastics Motion Tracking/Code for Gym Tracking/Analyzed Data/Webcam_Backflip/id8_1_pure_Sports2D/id8_1_pure_Sports2D_px_person00.trc
DataRate	CameraRate	NumFrames	NumMarkers	Units	OrigDataRate	OrigDataStartFrame	OrigNumFrames
29.8125	29.8125	11	22	m	29.8125	60	160
Frame#	Time	Hip			RHip			RKnee			RAnkle			RBigToe			RSmallToe			RHeel			LHip			LKnee			LAnkle			LBigToe			LSmallToe			LHeel			Neck			Head			Nose			RShoulder			RElbow			RWrist			LShoulder			LElbow			LWrist		
		X1	Y1	Z1	X2	Y2	Z2	X3	Y3	Z3	X4	Y4	Z4	X5	Y5	Z5	X6	Y6	Z6	X7	Y7	Z7	X8	Y8	Z8	X9	Y9	Z9	X10	Y10	Z10	X11	Y11	Z11	X12	Y12	Z12	X13	Y13	Z13	X14	Y14	Z14	X15	Y15	Z15	X16	Y16	Z16	X17	Y17	Z17	X18	Y18	Z18	X19	Y19	Z19	X20	Y20	Z20	X21	Y21	Z21	X22	Y22	Z22
60	2.012578616352201	0.9447248762663462	-0.6276500949565191	0.0	0.9396744923588457	-0.6316504545624853	0.0	1.016471814412623	-0.6899758101579048	0.0	0.9469807385934974	-0.7591936328136789	0.0	0.9770831290602211	-0.7828381449198892	0.0	0.9697992631769933	-0.7851003193549009	0.0	0.933051504809381	-0.765440854126136	0.0	0.952459611022371	-0.6224871999572418	0.0	1.0252443620548126	-0.6711889253188096	0.0	0.9665190479088639	-0.74985790454813	0.0	0.9931652589148244	-0.7714277215404612	0.0	0.9891001049340508	-0.7695985363845037	0.0	0.9492871097415768	-0.7566017204516355	0.0	0.9637108215661201	-0.5074386001649414	0.0	0.9878086258583361	-0.4459558393927599	0.0	0.9924862876427276	-0.47866710771934046	0.0	0.9619838781292266	-0.5125425529701233	0.0	1.0069995384230546	-0.4655358072592394	0.0	1.0348127508920546	-0.41278008846666553	0.0	0.9617103470213075	-0.5079637169696846	0.0	0.9995641151418548	-0.46037291400100666	0.0	1.0291070367891535	-0.41334946703823733	0.0
61	2.0461215932914043	0.9448524562325787	-0.6084279953981244	0.0	0.9386695887224832	-0.6126069381397566	0.0	1.0134726545808137	-0.6755642396446854	0.0	0.9449268177658543	-0.7484054172153373	0.0	0.9759144869732738	-0.7726011793813128	0.0	0.9685970468613847	-0.7741746381390268	0.0	0.9308516220647486	-0.7551160508536915	0.0	0.9546453915867593	-0.6032938713386976	0.0	1.0279923525782149	-0.6515090563482536	0.0	0.979251843952817	-0.7355250681426755	0.0	1.0091918800111543	-0.7575930799984352	0.0	1.0051647206995324	-0.7538187523740731	0.0	0.963044194970725	-0.7435189590259811	0.0	0.9616255253219927	-0.48868519728788185	0.0	0.9868197582966519	-0.4277982924808582	0.0	0.9921318234616217	-0.4599862715979134	0.0	0.9592233076265912	-0.4946474209540054	0.0	1.0054720944896076	-0.44923700482159	0.0	1.0364209652658776	-0.39935882873285017	0.0	0.9615632239299182	-0.4902333122911873	0.0	0.9998262790923822	-0.44307954506124086	0.0	1.0321402579960262	-0.399191090392135	0.0
62	2.079664570230608	0.9450100814456406	-0.5910223652750364	0.0	0.9380438389927044	-0.5948841198581996	0.0	1.0072556837538287	-0.665268220811269	0.0	0.9419814557466151	-0.7430818219175661	0.0	0.9737553647991378	-0.7667683399527245	0.0	0.9662935171042135	-0.7678428514629742	0.0	0.9280236042230272	-0.7505145788936878	0.0	0.9561009416719832	-0.5864128758288774	0.0	1.0279492821959795	-0.6374108471196306	0.0	0.9933792324356808	-0.7266127960244214	0.0	1.0258627525947845	-0.7487604846337473	0.0	1.0223400390522839	-0.7435848541873505	0.0	0.979092907615894	-0.7357366147145372	0.0	0.9597331590324981	-0.47067178927792636	0.0	0.9854720892591669	-0.4103931202038398	0.0	0.9916106127590909	-0.441879112078529	0.0	0.956827633790544	-0.4778967343785219	0.0	1.0040689573608328	-0.4338327884314682	0.0	1.037554612888442	-0.3855922001781841	0.0	0.9610492144991641	-0.4736918729879321	0.0	0.9991858832178278	-0.42645145888400376	0.0	1.03336880106683	-0.38494932740166415	0.0
63	2.113207547169811	0.9452625991732204	-0.5768019788160265	0.0	0.9379047826863508	-0.5799495375063409	0.0	0.9987268653368396	-0.6588331663077253	0.0	0.9386014661988554	-0.7420958718741707	0.0	0.9711214075576803	-0.7644153367543025	0.0	0.9635697327472585	-0.7652358424257654	0.0	0.9250630245153987	-0.7505002663789289	0.0	0.956862012742861	-0.5729556035595462	0.0	1.025651224771765	-0.6291038665315213	0.0	1.007475943070139	-0.7221501980062379	0.0	1.041545158948042	-0.7441969539946903	0.0	1.038818496218633	-0.7382109498838575	0.0	0.9955654423356739	-0.7322991184470663	0.0	0.9580123951059826	-0.4550357686172409	0.0	0.9834948798154567	-0.3951904565075999	0.0	0.9906139066934848	-0.4259273723655858	0.0	0.9549102432976615	-0.46352357116506837	0.0	1.0027809383515405	-0.4203207916484676	0.0	1.0378023632977227	-0.37217167694158987	0.0	0.9598511936508786	-0.45959359889757795	0.0	0.9972042191991148	-0.41190692176599686	0.0	1.0319347014197804	-0.37169807242630803	0.0
64	2.1467505241090143	0.9457238216306105	-0.5664563263345848	0.0	0.9382682094827125	-0.5686688786558932	0.0	0.9889468342981043	-0.6555739849230456	0.0	0.9353406749124091	-0.7440421737944918	0.0	0.9684788127321153	-0.7646304313484539	0.0	0.9608804623036977	-0.7654048303743669	0.0	0.9224907737062267	-0.7535001234843545	0.0	0.9572681230519351	-0.5632810347062585	0.0	1.0219023991681269	-0.6258063668191908	0.0	1.0202182890305818	-0.7207646071111192	0.0	1.054973270228485	-0.7425658796383818	0.0	1.053048366844865	-0.7362890555725703	0.0	1.0107259847891543	-0.7319398552311301	0.0	0.956425530241535	-0.4428882726591723	0.0	0.9809778481202214	-0.38324914791851783	0.0	0.988956375609891	-0.4133149575353152	0.0	0.9533987378852246	-0.4522868849401904	0.0	1.0016303309807182	-0.4093676122868765	0.0	1.0371738627689235	-0.35998771579630956	0.0	0.9580005615109541	-0.4486804463257496	0.0	0.9940044069357163	-0.400462353450327	0.0	1.0278235566643203	-0.36050795729981555	0.0
65	2.180293501048218	0.9464798519825831	-0.5600926716667155	0.0	0.9390674840281807	-0.5613234134692143	0.0	0.978892005183802	-0.6547719792137291	0.0	0.9326512557197976	-0.7477851489507572	0.0	0.9660960320316315	-0.7667598533604074	0.0	0.9583696417835927	-0.7676293027503376	0.0	0.9206347987741781	-0.7581741783345829	0.0	0.9576961319051811	-0.5572908519761834	0.0	1.0176025809284315	-0.6263546392516769	0.0	1.0307001309464754	-0.7213660783902385	0.0	1.065435678069482	-0.742608102279327	0.0	1.0640640540182125	-0.736463943027662	0.0	1.0233896475993656	-0.733605259897725	0.0	0.9549175245607123	-0.43475153674581835	0.0	0.9781656134979032	-0.3751635352876377	0.0	0.9865577517025313	-0.40471626989425014	0.0	0.9521553402692059	-0.4445441506700397	0.0	1.00054021171314	-0.40142334888588194	0.0	1.0357687966996463	-0.3500069702810599	0.0	0.9557100385840358	-0.44126142900877324	0.0	0.989911143676091	-0.39250297237477205	0.0	1.0214359987915693	-0.35212316999443427	0.0
66	2.213836477987421	0.9475491292419813	-0.5574351934985512	0.0	0.9401849967860465	-0.5577762466658145	0.0	0.9693277806456985	-0.6559060611041764	0.0	0.9307098808251848	-0.7525677599772753	0.0	0.9640694195482974	-0.7703131901601722	0.0	0.9560815248663596	-0.7713855075386176	0.0	0.9195145768057675	-0.7636639306711859	0.0	0.9584030246298022	-0.5547037178206587	0.0	1.0135520280132948	-0.6296629388939912	0.0	1.0385384145788172	-0.7233683377240979	0.0	1.0727601130875277	-0.7435815943937273	0.0	1.0716021845168346	-0.7378906533162555	0.0	1.033003018004379	-0.736666519259483	0.0	0.9534230659509569	-0.4306668719015643	0.0	0.9752536777924032	-0.3710069836312443	0.0	0.9834798698363136	-0.4002357914136742	0.0	0.9510818168084962	-0.4403631988173319	0.0	0.9993527773717761	-0.3967207516223773	0.0	1.033584940336611	-0.3430368184820582	0.0	0.9532199192137857	-0.4373220333073539	0.0	0.9852406275948662	-0.387823973981997	0.0	1.0134792522949991	-0.3467072746785895	0.0
67	2.2473794549266244	0.948865412647829	-0.5580128482105916	0.0	0.9414658074572515	-0.5576557544580691	0.0	0.9608208762048752	-0.6586781222983595	0.0	0.9294277803707128	-0.7579057046771931	0.0	0.9623510418561073	-0.7748466118890698	0.0	0.9540636547144143	-0.7762228179815645	0.0	0.9189387810790709	-0.7694884711370361	0.0	0.9594476522161267	-0.5551824189709634	0.0	1.0102786978824019	-0.6348809265988129	0.0	1.0437853161723494	-0.7265485995406439	0.0	1.0772012266822115	-0.7453189991336573	0.0	1.0759763806720837	-0.7402675427229973	0.0	1.0395556021606125	-0.7408281438401998	0.0	0.9519269141939802	-0.43032165183425186	0.0	0.9723248545009471	-0.3703902001993978	0.0	0.9799686212184336	-0.3994616560185008	0.0	0.9501367435647007	-0.4395843392500765	0.0	0.9978803656485828	-0.3951810154705208	0.0	1.030527961285602	-0.3394695580392261	0.0	0.9507817903907716	-0.43660473079926376	0.0	0.9803905104219027	-0.38590052726942053	0.0	1.0051047482486197	-0.3438098500995042	0.0
68	2.280922431865828	0.9502957291037252	-0.5612287381903718	0.0	0.9427379547906447	-0.5603997812052595	0.0	0.9537685507156309	-0.6628694241052194	0.0	0.9285989509751804	-0.7634734986734794	0.0	0.9607590831871813	-0.7799513284699378	0.0	0.9522915793555305	-0.7817055865664656	0.0	0.9187106634689731	-0.7753727202871025	0.0	0.9607053793987388	-0.5582794125609924	0.0	1.007988009090247	-0.6413404017968641	0.0	1.0467978356742231	-0.7307690043567017	0.0	1.079343071907165	-0.7479340885103263	0.0	1.077860993964943	-0.743538016581101	0.0	1.0434078078009865	-0.745884341964333	0.0	0.950486449003117	-0.43311897010294964	0.0	0.969345441312809	-0.3726512570094294	0.0	0.976359968478371	-0.40165520064219984	0.0	0.9492947234617863	-0.44177806539178915	0.0	0.9959948401697741	-0.3963641036234297	0.0	1.0265933167413084	-0.33914107557188367	0.0	0.9486571511098644	-0.4386426061228154	0.0	0.9758629472604844	-0.38618594711063386	0.0	0.9976189126785644	-0.3427299145005368	0.0
69	2.314465408805031	0.9516831861232943	-0.5663638833119782	0.0	0.943869212286898	-0.5652555096844892	0.0	0.9483846781828108	-0.6681526536248436	0.0	0.9280227551832895	-0.7690178889404838	0.0	0.9590957436172007	-0.785268615809045	0.0	0.9506647716474071	-0.7874194302889685	0.0	0.9187186791044384	-0.7811217236681876	0.0	0.9619890540520184	-0.5633616432067305	0.0	1.0066365386749727	-0.64847501422349	0.0	1.048096669536291	-0.7358202259106141	0.0	1.0799442329276403	-0.7514661611954679	0.0	1.0780641441164127	-0.7475934069412918	0.0	1.0450926556207631	-0.7515819830919374	0.0	0.9491858434347912	-0.43823597187899793	0.0	0.9662619040007603	-0.3770542577735567	0.0	0.9729419528881794	-0.4059916986154557	0.0	0.9485088703609885	-0.4462292087638441	0.0	0.9937474401565936	-0.3995111136114643	0.0	1.0220258878672899	-0.34138913235477514	0.0	0.947035958465115	-0.4428121558201658	0.0	0.9720644111658472	-0.3883203679375927	0.0	0.9918071633034412	-0.3430228048719776	0.0
70	2.3480083857442344	0.9528960833602852	-0.5726176923838595	0.0	0.944800877299024	-0.5713512073471999	0.0	0.9446646052516359	-0.6740025057155423	0.0	0.9275512133186624	-0.7742927658117502	0.0	0.9573373968189838	-0.7904754532798816	0.0	0.949141331294782	-0.7929713841275736	0.0	0.918894076634332	-0.7865285194881485	0.0	0.9631802205623798	-0.5696374719081203	0.0	1.0060446985920415	-0.6557747802192929	0.0	1.0482059220693918	-0.7414086830432852	0.0	1.079718010240939	-0.75571254352807	0.0	1.0773268120615331	-0.7521700326090888	0.0	1.0451764078802614	-0.7575965496581242	0.0	0.9480973688899033	-0.44471322687833686	0.0	0.9631774499412188	-0.3828563375929369	0.0	0.9699457535177142	-0.41167936231713126	0.0	0.9477177346023694	-0.45204155593901185	0.0	0.9913428187813099	-0.40373469673793205	0.0	1.0172601796917564	-0.3452982377468124	0.0	0.9459785612812099	-0.44839227805048437	0.0	0.9691596296211963	-0.39208476703454775	0.0	0.9877218092264508	-0.34460737406157166	0.0
